<svg xmlns="http://www.w3.org/2000/svg" version="1.1" xmlns:xlink="http://www.w3.org/1999/xlink" width="1000" height="1000"><style>
    #light-icon {
      display: inline;
    }
    #dark-icon {
      display: none;
    }

    @media (prefers-color-scheme: dark) {
      #light-icon {
        display: none;
      }
      #dark-icon {
        display: inline;
      }
    }
  </style><g id="light-icon"><svg xmlns="http://www.w3.org/2000/svg" version="1.1" xmlns:xlink="http://www.w3.org/1999/xlink" width="1000" height="1000"><g clip-path="url(#SvgjsClipPath1126)"><rect width="1000" height="1000" fill="#ffffff"></rect><g transform="matrix(1.5134546114962013,0,0,1.5134546114962013,-5.684341886080802e-14,5.410600236098844)"><svg xmlns="http://www.w3.org/2000/svg" version="1.1" xmlns:xlink="http://www.w3.org/1999/xlink" width="660.74" height="653.59"><svg id="Vrstva_1" xmlns="http://www.w3.org/2000/svg" version="1.1" viewBox="0 0 660.74 653.59">
  <!-- Generator: Adobe Illustrator 29.5.1, SVG Export Plug-In . SVG Version: 2.1.0 Build 141)  -->
  <defs>
    <style>
      .st0 {
        fill: #fff;
      }

      .st1 {
        fill: #146757;
      }

      .st2 {
        fill: #d45a3d;
      }
    </style>
  <clipPath id="SvgjsClipPath1126"><rect width="1000" height="1000" x="0" y="0" rx="500" ry="500"></rect></clipPath></defs>
  <rect class="st0" x="122.98" y="345.7" width="417.66" height="296.17"></rect>
  <path class="st1" d="M331.09,1.29C148.63,1.29.72,149.21.72,331.67c0,142.42,90.13,263.8,216.46,310.2l46.22-239.32h133.76l62.69,233.45c118.49-50.19,201.61-167.56,201.61-304.34C661.46,149.2,513.55,1.29,331.09,1.29h0Z"></path>
  <path class="st2" d="M465.53,238.11h-20.49v-35.31c0-13.23-10.82-24.05-24.05-24.05h-180.34c-13.23,0-24.05,10.82-24.05,24.05v35.31h-19.94c-24.03,0-43.69,19.66-43.69,43.69v138.92c0,24.03,19.66,43.69,43.69,43.69h54.92l8.09-41.74c-10.04-1.16-19.27-9.25-19.27-19.6v-4.18c0-11.14,9.03-20.17,20.17-20.17h142.51c11.14,0,20.17,9.03,20.17,20.17v4.18c0,10.55-8.1,19.19-18.42,20.08l9.83,41.27h50.88c24.03,0,43.69-19.66,43.69-43.69v-138.92c0-24.03-19.66-43.69-43.69-43.69h-.01ZM400.23,244.59h-136.83v-16.61c0-8.78,7.18-15.96,15.96-15.96h104.9c8.78,0,15.96,7.18,15.96,15.96v16.61h.01Z"></path>
</svg></svg></g></g></svg></g><g id="dark-icon"><svg xmlns="http://www.w3.org/2000/svg" version="1.1" xmlns:xlink="http://www.w3.org/1999/xlink" width="1000" height="1000"><g clip-path="url(#SvgjsClipPath1127)"><rect width="1000" height="1000" fill="#146757"></rect><g transform="matrix(1.5134546114962013,0,0,1.5134546114962013,-5.684341886080802e-14,5.410600236098844)"><svg xmlns="http://www.w3.org/2000/svg" version="1.1" xmlns:xlink="http://www.w3.org/1999/xlink" width="660.74" height="653.59"><svg id="Vrstva_1" xmlns="http://www.w3.org/2000/svg" version="1.1" viewBox="0 0 660.74 653.59">
  <!-- Generator: Adobe Illustrator 29.5.1, SVG Export Plug-In . SVG Version: 2.1.0 Build 141)  -->
  <defs>
    <style>
      .st0 {
        fill: #fff;
      }

      .st1 {
        fill: #146757;
      }

      .st2 {
        fill: #d45a3d;
      }
    </style>
  <clipPath id="SvgjsClipPath1127"><rect width="1000" height="1000" x="0" y="0" rx="500" ry="500"></rect></clipPath></defs>
  <rect class="st0" x="122.98" y="345.7" width="417.66" height="296.17"></rect>
  <path class="st1" d="M331.09,1.29C148.63,1.29.72,149.21.72,331.67c0,142.42,90.13,263.8,216.46,310.2l46.22-239.32h133.76l62.69,233.45c118.49-50.19,201.61-167.56,201.61-304.34C661.46,149.2,513.55,1.29,331.09,1.29h0Z"></path>
  <path class="st2" d="M465.53,238.11h-20.49v-35.31c0-13.23-10.82-24.05-24.05-24.05h-180.34c-13.23,0-24.05,10.82-24.05,24.05v35.31h-19.94c-24.03,0-43.69,19.66-43.69,43.69v138.92c0,24.03,19.66,43.69,43.69,43.69h54.92l8.09-41.74c-10.04-1.16-19.27-9.25-19.27-19.6v-4.18c0-11.14,9.03-20.17,20.17-20.17h142.51c11.14,0,20.17,9.03,20.17,20.17v4.18c0,10.55-8.1,19.19-18.42,20.08l9.83,41.27h50.88c24.03,0,43.69-19.66,43.69-43.69v-138.92c0-24.03-19.66-43.69-43.69-43.69h-.01ZM400.23,244.59h-136.83v-16.61c0-8.78,7.18-15.96,15.96-15.96h104.9c8.78,0,15.96,7.18,15.96,15.96v16.61h.01Z"></path>
</svg></svg></g></g></svg></g></svg>